<svg height="661.79235" viewBox="0 0 860.28256 661.79235" width="860.28256" xmlns="http://www.w3.org/2000/svg"><path d="m536.24995 647.27241h324.03261v2.24072h-324.03261z" fill="#3f3d56"/><path d="m698.98 653.075-35.153-5.514 14.475-15.164h20.678z" fill="#a0616a"/><path d="m862.10882 780.54949-34.7725-11.43832a6.76267 6.76267 0 0 1 -3.93554-9.44838 6.76266 6.76266 0 0 1 6.5046-3.72293l7.88775.533 3.09121-1.7397a1.7981 1.7981 0 0 1 2.54454 2.25161l-2.85067 6.92306 28.94991-2.06785 1.42836 11.42692a6.78111 6.78111 0 0 1 -8.84766 7.28259z" fill="#2f2e41" transform="translate(-169.85872 -119.10383)"/><path d="m964.53347 754.86305-36.532 9.65c6.72859-13.95812 10.872-26.30834 8.2714-34.46418l17.23209-2.06785z" fill="#a0616a" transform="translate(-169.85872 -119.10383)"/><path d="m962.28764 767.113-37.799 2.45089a6.99781 6.99781 0 0 1 -7.42761-7.55005 6.99781 6.99781 0 0 1 4.80623-6.08641l7.77791-2.53514 2.29551-2.86409a1.86062 1.86062 0 0 1 3.31241 1.17862l-.06244 7.74708 26.99247-13.16742 5.785 10.41783a7.01691 7.01691 0 0 1 -5.68048 10.40869z" fill="#2f2e41" transform="translate(-169.85872 -119.10383)"/><circle cx="672.79797" cy="185.68462" fill="#a0616a" r="25.50349"/><path d="m883.12366 337.9923-29.4801 22.28984c-4.76461-18.19123-10.48312-31.18532-17.97568-34.5133l29.48012-17.25665z" fill="#a0616a" transform="translate(-169.85872 -119.10383)"/><path d="m789.482 608.601-25.166 10.786-58.241-137.335-4.674 152.794-25.166-1.438-28.042-239.436 2.157-13.662 95.271 21.211 1.438 76.936z" fill="#2f2e41"/><path d="m813.73756 297.36728s16.53762-15.09957 21.57081-8.62833 6.47124 7.9093 9.34735 7.9093 10.06638 7.9093 10.06638 7.9093 3.59513-7.19027 7.90929-1.43806 5.03319 14.38051 5.03319 14.38051 15.8186-36.67038-12.22346-43.86065-48.1748 15.09965-41.70356 23.72793z" fill="#2f2e41" transform="translate(-169.85872 -119.10383)"/><path d="m921.95112 532.12959c-13.66151-5.98231-14.06421-1.28709-33.79427 6.47124-24.84961 3.08461-40.64661 3.48007-48.53432-6.83075-3.22842-20.47072-5.87439-40.10015-7.5066-58.76611q-.50688-5.77017-.87719-11.42531c-2.87611-43.911.64705-82.08414 16.6526-112.80095l28.76108-21.57081 9.38334 6.80916c22.412 16.26439 18.92484 41.25058 21.90153 68.78215z" fill="#e6e6e6" transform="translate(-169.85872 -119.10383)"/><path d="m665.09 406.555-15.099-12.943 1.438-12.942h13.661z" fill="#a0616a"/><g transform="translate(-169.85872 -119.10383)"><path d="m874.79989 395.874s42.4798 55.36508 12.13709 80.531-47.31445 40.98454-47.31445 40.98454 1.80037-108.57308 35.17736-121.51554z" opacity=".2"/><path d="m858.31723 451.23905-26.2013 21.76495q-.50688-5.77017-.87719-11.42531l17.73114-79.3662z" opacity=".2"/><path d="m839.263 517.03-20.85177-16.5376 27.323-69.02659.62026-71.95025a16.38312 16.38312 0 0 1 10.894-15.29519 16.38313 16.38313 0 0 1 21.87014 15.215l1.12885 83.53483z" fill="#e6e6e6"/><path d="m169.85872 669.30137v-510.76643a8.39155 8.39155 0 0 1 8.38238-8.38238h468.2957a8.39155 8.39155 0 0 1 8.38238 8.38238v510.76643a8.39155 8.39155 0 0 1 -8.38238 8.38238h-468.2957a8.39155 8.39155 0 0 1 -8.38238-8.38238zm8.38238-515.79586a5.03493 5.03493 0 0 0 -5.02943 5.02943v510.76643a5.03493 5.03493 0 0 0 5.02943 5.02943h468.2957a5.03493 5.03493 0 0 0 5.02943-5.02943v-510.76643a5.03493 5.03493 0 0 0 -5.02943-5.02943z" fill="#e6e6e6"/><path d="m495.66661 202.12148a6.64647 6.64647 0 0 1 0 13.29115h-166.62579a6.64647 6.64647 0 1 1 -.21822-13.29115q.10911-.00186.21822 0z" fill="#3f3d56"/><path d="m291.25419 200.271a1.30766 1.30766 0 0 1 0 1.8494l-5.61377 5.61382h13.843a1.30772 1.30772 0 1 1 0 2.61543h-13.843l5.61377 5.61382a1.30771 1.30771 0 1 1 -1.84936 1.8494l-7.84623-7.84623a1.30774 1.30774 0 0 1 0-1.84941l7.84623-7.84623a1.30769 1.30769 0 0 1 1.84936 0z" fill="#e6e6e6"/><path d="m533.52371 200.271a1.30766 1.30766 0 0 0 0 1.8494l5.61377 5.61382h-13.843a1.30772 1.30772 0 1 0 0 2.61543h13.843l-5.61377 5.61382a1.30771 1.30771 0 1 0 1.84936 1.8494l7.84623-7.84623a1.30774 1.30774 0 0 0 0-1.84941l-7.84623-7.84623a1.30769 1.30769 0 0 0 -1.84936 0z" fill="#e6e6e6"/><path d="m319.79668 588.10058a23.83563 23.83563 0 0 0 0 47.67127h185.18454a23.83563 23.83563 0 0 0 0-47.67127z" fill="#e6e6e6"/><path d="m608.96227 157.40849a38.30467 38.30467 0 1 1 38.30466 38.30467 38.348 38.348 0 0 1 -38.30466-38.30467z" fill="#6c63ff"/><path d="m632.1529 153.63h11.33547v-11.33554a3.77857 3.77857 0 1 1 7.55713 0v11.33554h11.33558a3.77851 3.77851 0 0 1 0 7.557h-11.33558v11.33558a3.77857 3.77857 0 0 1 -7.55713 0v-11.33552h-11.33547a3.77851 3.77851 0 1 1 0-7.557z" fill="#fff"/></g><path d="m257.81285 393.55492h353.44729v2.23518h-353.44729z" fill="#e6e6e6" transform="matrix(.77348203 -.63381823 .63381823 .77348203 -321.57903 245.71371)"/><path d="m433.419 218.15297h2.235v354.15673h-2.235z" fill="#e6e6e6" transform="matrix(.6359469 -.77173281 .77173281 .6359469 -316.67736 360.12744)"/><path d="m293.35914 502.21257v-215.70657a7.83269 7.83269 0 0 1 7.82355-7.82355h266.0009a7.83234 7.83234 0 0 1 7.82356 7.82355v215.70657a7.8327 7.8327 0 0 1 -7.82356 7.82356h-266.0009a7.833 7.833 0 0 1 -7.82355-7.82356zm7.82355-221.29486a5.59483 5.59483 0 0 0 -5.58825 5.58825v215.70661a5.59483 5.59483 0 0 0 5.58825 5.58826h266.0009a5.59483 5.59483 0 0 0 5.58825-5.58826v-215.70657a5.59483 5.59483 0 0 0 -5.58825-5.58825z" fill="#3f3d56" transform="translate(-169.85872 -119.10383)"/><path d="m249.77075 541.33035v-215.70661a7.8327 7.8327 0 0 1 7.82356-7.82355h266.0009a7.83269 7.83269 0 0 1 7.82355 7.82355v215.70661a7.833 7.833 0 0 1 -7.82355 7.82356h-266.0009a7.83305 7.83305 0 0 1 -7.82356-7.82356z" fill="#6c63ff" transform="translate(-169.85872 -119.10383)"/><path d="m360.24709 496.06538h135.80067a2.76831 2.76831 0 0 0 .50748-.04021l-64.22745-111.25117a4.497 4.497 0 0 0 -7.8281 0l-43.10469 74.65816-2.06506 3.5724z" fill="#fff" transform="translate(-169.85872 -119.10383)"/><path d="m190.389 376.961h46.365l-22.761-33.06-1.638-2.382-.819-1.191-2.065 3.573z" opacity=".2"/><path d="m284.63427 496.06538h117.45643l-22.76076-33.06084-1.638-2.3816-29.6593-43.08461c-1.94445-2.82373-6.62222-2.99958-8.90833-.53258a5.3605 5.3605 0 0 0 -.42711.53258z" fill="#fff" transform="translate(-169.85872 -119.10383)"/><circle cx="203.30104" cy="271.90237" fill="#fff" r="20.11771"/><path d="m492.30098 333.4473h24.58832v24.58832h-24.58832z" fill="#3f3d56" transform="matrix(-1 0 0 -1 839.33157 572.37909)"/></svg>