<svg height="540.52883" viewBox="0 0 906.38778 540.52883" width="906.38778" xmlns="http://www.w3.org/2000/svg"><path d="m2.10258 70.0398h689.99951v2h-689.99951z" fill="#3f3d56"/><path d="m44.26101 111.88979h179.12676v2.01266h-179.12676z" fill="#3f3d56"/><path d="m44.26101 125.97841h179.12676v2.01266h-179.12676z" fill="#3f3d56"/><path d="m44.26101 140.06703h179.12676v2.01266h-179.12676z" fill="#3f3d56"/><path d="m47.90401 61.33568h40.29028v32.73585h-40.29028z" fill="#d0cde1"/><path d="m229.12473 268.77083h-41.969v-34.41461h41.969zm-40.29028-1.67876h38.61155v-31.05707h-38.61155z" fill="#3f3d56" transform="translate(-146.80611 -179.73559)"/><circle cx="8" cy="72.17862" fill="#6c63ff" r="8"/><path d="m727.26101 111.88979h179.12676v2.01266h-179.12676z" fill="#3f3d56"/><path d="m727.26101 125.97841h179.12676v2.01266h-179.12676z" fill="#3f3d56"/><path d="m727.26101 140.06703h179.12676v2.01266h-179.12676z" fill="#3f3d56"/><path d="m730.90401 61.33568h40.29028v32.73585h-40.29028z" fill="#d0cde1"/><path d="m912.12473 268.77083h-41.969v-34.41461h41.969zm-40.29028-1.67876h38.61155v-31.05707h-38.61155z" fill="#3f3d56" transform="translate(-146.80611 -179.73559)"/><circle cx="691" cy="72.17862" fill="#6c63ff" r="8"/><path d="m386.26101 28.17724h179.12676v2.01266h-179.12676z" fill="#3f3d56"/><path d="m386.26101 14.08862h179.12676v2.01266h-179.12676z" fill="#3f3d56"/><path d="m386.26101 0h179.12676v2.01266h-179.12676z" fill="#3f3d56"/><path d="m389.90401 48.00816h40.29028v32.73585h-40.29028z" fill="#d0cde1"/><path d="m571.12473 267.19465h-41.969v-34.41465h41.969zm-40.29028-1.67876h38.61155v-31.05709h-38.61155z" fill="#3f3d56" transform="translate(-146.80611 -179.73559)"/><circle cx="350" cy="69.90107" fill="#6c63ff" r="8"/><circle cx="134.10236" cy="70.03985" fill="#fff" r="18"/><path d="m280.89273 229.50082a19.91339 19.91339 0 1 0 19.91338 19.91339 19.91338 19.91338 0 0 0 -19.91338-19.91339zm-3.43514 28.82458-8.56562-8.56567 2.40259-2.40256 6.1711 6.17113 13.02528-13.0253 2.40254 2.40258z" fill="#6c63ff" transform="translate(-146.80611 -179.73559)"/><ellipse cx="413.69389" cy="469.03985" fill="#d0cde1" rx="31" ry="7"/><circle cx="416.69389" cy="450.03985" fill="#fff" r="18"/><path d="m563.48425 609.50082a19.91339 19.91339 0 1 0 19.91339 19.91339 19.91337 19.91337 0 0 0 -19.91339-19.91339zm-3.43513 28.82458-8.56562-8.56567 2.40258-2.40256 6.17111 6.17113 13.02528-13.0253 2.40254 2.40258z" fill="#6c63ff" transform="translate(-146.80611 -179.73559)"/><ellipse cx="242.69389" cy="469.03985" fill="#d0cde1" rx="31" ry="7"/><ellipse cx="323.69389" cy="469.03985" fill="#d0cde1" rx="31" ry="7"/><circle cx="326.69389" cy="450.03985" fill="#fff" r="18"/><path d="m473.48425 609.50082a19.91339 19.91339 0 1 0 19.91339 19.91339 19.91337 19.91337 0 0 0 -19.91339-19.91339zm-3.43513 28.82458-8.56562-8.56567 2.40258-2.40256 6.17111 6.17113 13.02528-13.0253 2.40254 2.40258z" fill="#6c63ff" transform="translate(-146.80611 -179.73559)"/><path d="m187.69389 493.53985h531v2h-531z" fill="#3f3d56"/><path d="m782.07 704.1154c0 .06-.19.16-.54.3-5.65 2.3-53.81 14.76-59.46 15.7-6 1-30-3-35-13s26-13 26-13l11-11 1.56-8.33 1.44-7.67 48 21s7 15 7 16z" fill="#2f2e41" transform="translate(-146.80611 -179.73559)"/><path d="m593.07087 587.116-7 4s-24 18-16 26 20-15 20-15l7-5z" fill="#ffb8b8" transform="translate(-146.80611 -179.73559)"/><circle cx="518.26475" cy="283.3804" fill="#ffb8b8" r="27"/><g transform="translate(-146.80611 -179.73559)"><path d="m683.07087 454.116s33 9 36 8l-10 36s-28-19-33-19z" fill="#ffb8b8"/><path d="m692.07087 490.116s15-32 19-32 53 3 77 38 24 48 24 48l-65 16-2-2s-18 5-29-20z" fill="#d0cde1"/><path d="m719.07087 476.116s-20-2-34 21-42 43-42 43l-53 47 6 14 63-38 73-51s12-30-13-36z" fill="#d0cde1"/><path d="m727.07 585.1154-5 76s-5.84-3.44-14.66-8.93c-21.25-13.23-59.79-38.4-75.34-56.07-17.97-20.42 4.1-31.51 12.78-34.87 1.94995-.76 3.22-1.13 3.22-1.13z" fill="#ffb8b8"/><path d="m782.07 704.1154c0 .06-.19.16-.54.3-22.64-2.33-41.24-14.57-55.9-29.63l1.44-7.67 48 21s7 15 7 16z" opacity=".15"/><path d="m747.07087 556.116v7s-4-2-2 2l-1 3-21 3s-71-23-78-12l11 53 29-8s43 123 133 93l1-4 18-4s-13-142-24-147z" fill="#2f2e41"/></g><path d="m668.69389 431.03985v75" fill="none" opacity=".15" stroke="#000" stroke-miterlimit="10" stroke-width="2"/><path d="m545.69389 421.03985 54-17" fill="none" opacity=".15" stroke="#000" stroke-miterlimit="10" stroke-width="2"/><path d="m594.26475 493.50519 37.42914-81.46534" fill="none" opacity=".15" stroke="#000" stroke-miterlimit="10" stroke-width="2"/><path d="m677.90665 444.66585c4.57052-2.94871 9.09363-6.59325 14.43409-7.116 7.00684-.68589 13.12019 4.20355 17.83481 9.30958s9.22366 10.96245 15.8189 13.19451c3.83339 1.29735 8.006 1.22172 12.038 1.73917s8.24921 1.82729 10.65352 5.08105c2.51187 3.39934 2.46227 8.05287 3.57142 12.17228a21.22218 21.22218 0 0 0 20.32222 15.34633c-8.83269-.55638-16.97863 4.85671-24.55152 9.74657s-16.35149 9.66692-24.94052 7.69243c-8.759-2.01357-14.44563-10.42571-22.59085-14.147-6.96334-3.18135-15.03459-2.66325-22.73231-3.17805s-16.07609-2.64167-20.18584-9.1243c-3.0325-4.7834-3.638-11.70472-8.68872-14.22964-3.12409-1.56177-6.88947-.79955-10.41505-.863s-7.65129-1.70475-8.05683-5.229c9.0784-4.95373 18.06808-10.18393 27.27278-14.88184 5.67749-2.89774 15.80612.41755 20.2159-5.51309z" fill="#2f2e41" transform="translate(-146.80611 -179.73559)"/><path d="m643.63542 467.77543s45.86458-22.93229 45.86458-31.12243-18.01823-32.76041-50.77864-32.76041c0 0-8.1901-14.74219-18.01823-3.276s4.91406 19.65624 4.91406 19.65624-18.01822 29.48438 8.19011 47.5026z" fill="#d0cde1" transform="translate(-146.80611 -179.73559)"/></svg>